<svg width="62" height="53" viewBox="0 0 62 53" fill="none" xmlns="http://www.w3.org/2000/svg">
<g filter="url(#filter0_d_1_22)">
<path fill-rule="evenodd" clip-rule="evenodd" d="M10.337 0.239724C9.26105 0.596196 8.17505 1.16635 7.21479 1.87901C6.73782 2.23295 6.32669 2.56058 6.30111 2.60703C6.27561 2.65347 6.44426 2.82829 6.67608 2.99534L7.09738 3.29919L7.36319 3.07643C8.00123 2.54148 8.75867 2.00738 9.36587 1.66439C10.0765 1.26288 11.6192 0.650598 11.9202 0.650598C12.0809 0.650598 12.092 0.629811 11.9985 0.503309C11.8693 0.328397 11.3057 -0.0069141 11.1528 0.000108597C11.0937 0.00282404 10.7266 0.110693 10.337 0.239724ZM26.3775 0.28598C20.2435 0.802663 14.7859 2.90123 10.6446 6.33571C9.61852 7.18667 7.89057 9.12756 7.2322 10.1686C4.93388 13.8026 4.41784 18.0279 5.81015 21.8106C7.0223 25.1034 9.45203 27.7239 12.7198 29.2623C13.2133 29.4946 13.6715 29.772 13.738 29.8787C13.8346 30.0337 13.9173 30.0621 14.1487 30.0199C14.3107 29.9904 14.7375 30.0448 15.1167 30.1433C15.4897 30.2403 16.0106 30.3678 16.2741 30.4267C16.717 30.5256 16.7532 30.5531 16.7532 30.7893C16.7532 31.0956 16.8895 31.2696 17.1295 31.2696C17.2548 31.2696 17.4027 31.4394 17.6396 31.8548C18.7852 33.8634 20.8314 36.0148 22.9194 37.4065C23.2173 37.605 23.4735 37.8012 23.4888 37.8425C23.5041 37.8839 23.5709 37.9177 23.6374 37.9177C23.7038 37.9177 23.9422 38.0225 24.1671 38.1506C24.392 38.2786 24.8688 38.5137 25.2268 38.6729C25.5847 38.8321 25.9601 39.0487 26.061 39.1544C26.1807 39.2797 26.3078 39.3279 26.4269 39.2929C26.5272 39.2634 26.8383 39.3072 27.1183 39.3901C27.3983 39.4731 27.9423 39.6078 28.3274 39.6894C28.9621 39.8239 29.0303 39.8592 29.0586 40.0675C29.0942 40.3303 29.2169 40.4424 29.4712 40.4445C29.7269 40.4465 29.8599 40.222 29.7961 39.8958C29.7563 39.6917 29.7779 39.5963 29.8784 39.5331C29.9943 39.4602 29.9484 39.3682 29.5735 38.9217C29.3308 38.6325 28.9746 38.1093 28.7819 37.7589C28.4444 37.1449 28.4375 37.1171 28.592 36.9933C28.7834 36.84 28.8045 36.3975 28.6284 36.2333C28.5598 36.1693 28.415 36.1429 28.304 36.1742C28.1149 36.2276 28.0937 36.1898 27.9296 35.5058C27.6799 34.4654 27.5918 33.6356 27.6976 33.3204C27.7632 33.1252 27.7577 33.0007 27.6759 32.829C27.4505 32.3558 27.4633 32.3533 29.9337 32.3824C31.3647 32.3993 32.5951 32.3655 33.2018 32.2926C33.9406 32.2039 34.1983 32.2019 34.2718 32.2845C34.3936 32.4214 34.69 32.4252 34.8091 32.2914C34.8589 32.2354 35.1953 32.1669 35.5567 32.1391C36.0993 32.0973 36.2333 32.115 36.3262 32.2409C36.4903 32.463 36.7786 32.4273 36.986 32.1591C37.0967 32.0161 37.2565 31.9246 37.3969 31.924C37.5233 31.9234 37.7578 31.8986 37.9182 31.8688C38.1856 31.8191 38.218 31.8387 38.3068 32.104C38.3859 32.3402 38.4503 32.3932 38.658 32.3932C38.946 32.3932 39.1267 32.1272 39.0421 31.8278C39.0036 31.6916 39.0293 31.6437 39.1417 31.6426C39.225 31.6417 39.7618 31.5231 40.3347 31.3791C41.1651 31.1703 41.4242 31.1374 41.6127 31.2169C41.8187 31.3036 41.8696 31.288 42.0081 31.0959C42.106 30.9602 42.4086 30.7892 42.7956 30.6511C43.515 30.3944 43.6677 30.3708 43.5178 30.5392C43.2333 30.8589 43.521 31.3637 43.9019 31.2132C44.1997 31.0955 44.2236 30.6153 43.9386 30.4749C43.8355 30.424 43.7511 30.357 43.7511 30.3258C43.7511 30.2142 44.4656 30.0151 44.7719 30.0415C45.0272 30.0634 45.0965 30.0317 45.1504 29.868C45.1952 29.7319 45.4774 29.5354 46.0295 29.256C46.4767 29.0296 46.974 28.7532 47.1345 28.6418C47.2949 28.5303 47.4337 28.4545 47.4427 28.4732C47.6063 28.8123 47.6712 28.8866 47.8264 28.9125C47.9274 28.9292 48.0641 28.8925 48.1303 28.8307C48.268 28.7024 48.2918 28.3128 48.1674 28.2264C48.0306 28.1314 48.0707 28.0416 48.3255 27.8725C48.4836 27.7675 48.6534 27.7316 48.8177 27.7686C49.0247 27.8151 49.093 27.783 49.2084 27.585C49.2854 27.4531 49.3261 27.3046 49.2989 27.2551C49.2717 27.2057 49.4227 27.0458 49.6344 26.8999C50.1579 26.5391 52.2726 24.23 52.5926 23.6696C52.7466 23.4 52.9126 23.2169 53.0031 23.2169C53.2399 23.2169 53.4369 22.9391 53.3912 22.6699C53.351 22.4337 53.5584 21.8123 53.6775 21.8123C53.7122 21.8123 53.7637 21.8545 53.792 21.906C53.8632 22.0354 54.1956 22.0236 54.317 21.8872C54.5384 21.6384 54.3774 21.1569 54.0728 21.1569C53.9439 21.1569 53.9535 21.08 54.1632 20.4312C54.2922 20.0321 54.4436 19.4527 54.4996 19.1437C54.6514 18.3059 54.6501 18.3092 54.7878 18.4377C54.8533 18.4986 55.0122 18.535 55.1411 18.5184C55.3345 18.4935 55.3795 18.4382 55.4003 18.1994C55.4339 17.8121 55.2351 17.6223 54.9311 17.7513L54.7086 17.8457V16.9731C54.7086 16.4932 54.7185 16.1005 54.7306 16.1005C54.7427 16.1005 54.8272 16.1529 54.9183 16.2169C55.1659 16.3906 55.3752 16.204 55.3752 15.8094C55.3752 15.5309 55.3464 15.4882 55.1411 15.4618C55.0122 15.4452 54.8533 15.4815 54.7878 15.5425C54.6525 15.6687 54.6793 15.737 54.4602 14.7042C53.916 12.138 52.5239 10.0295 49.7506 7.57077C47.7127 5.76406 46.7224 5.0514 44.876 4.06288C39.4897 1.17917 32.5633 -0.235011 26.3775 0.28598ZM13.3351 1.24706C9.81809 2.62828 6.79715 5.16217 4.63982 8.54046C4.12769 9.34245 3.92879 9.77346 4.02237 9.87852C4.04337 9.90211 4.18102 9.87421 4.32835 9.81644C4.52808 9.73825 4.72048 9.50388 5.08462 8.89525C7.05563 5.60123 9.81275 3.17587 12.9618 1.96581C13.8839 1.61149 14.0763 1.50306 14.1842 1.27627C14.3433 0.942275 14.1299 0.93497 13.3351 1.24706ZM33.4186 1.4422C39.0726 2.23145 44.7234 4.52245 48.0841 7.38808C48.9798 8.15187 50.1785 9.49789 50.6968 10.3218C52.1784 12.6772 52.6463 15.3765 52.0416 18.0813C51.5334 20.3544 50.4158 22.4153 48.7032 24.237C45.1483 28.0182 39.819 30.48 33.5586 31.2326C32.0474 31.4142 28.7522 31.4391 27.3031 31.2798C25.9311 31.1289 25.9677 31.0848 26.0276 32.8146C26.0625 33.8221 26.1233 34.3302 26.2905 35.0101C26.5437 36.0397 27.1079 37.3803 27.5833 38.0816C27.7665 38.352 27.8725 38.5732 27.8188 38.5732C27.3551 38.5732 25.0252 37.5879 24.0066 36.961C21.6075 35.4847 19.3657 33.1199 18.2409 30.8793C17.5921 29.5866 17.7555 29.7065 16.2116 29.3922C10.4438 28.218 6.33911 23.6313 6.11104 18.1054C5.92289 13.5476 8.17255 9.42064 12.6293 6.14769C16.1643 3.55172 20.9174 1.85317 26.1691 1.30933C27.461 1.17552 32.1201 1.26092 33.4186 1.4422ZM46.0757 2.606C45.909 2.75759 45.8949 2.81434 45.9751 3.012C46.0447 3.18354 46.2337 3.30761 46.722 3.50219C49.1978 4.48846 51.4948 6.61699 52.819 9.1519C53.0623 9.61774 53.3182 10.0234 53.3877 10.0533C53.6149 10.1514 53.8118 10.1109 54.0119 9.92515L54.2086 9.74246L53.882 9.03785C52.8708 6.85614 50.7566 4.62067 48.5259 3.37428C47.7215 2.92474 46.5968 2.42968 46.3802 2.42968C46.3192 2.42968 46.1822 2.50899 46.0757 2.606ZM55.8691 16.6403C55.5808 16.8623 55.7678 17.4114 56.1316 17.4114C56.3992 17.4114 56.5598 17.0562 56.4225 16.7678C56.3285 16.5708 56.0446 16.5053 55.8691 16.6403ZM56.8501 17.8047C56.7951 17.8665 56.7501 18.0056 56.7501 18.1137C56.7501 18.3715 56.9032 18.5351 57.1443 18.5351C57.3931 18.5351 57.4632 18.3254 57.3328 17.9716C57.2258 17.6814 57.0224 17.6111 56.8501 17.8047ZM55.8335 19.0033C55.7418 19.1063 55.6668 19.2327 55.6668 19.2842C55.6668 19.4212 55.9818 19.7523 56.1122 19.7523C56.2612 19.7523 56.5001 19.4483 56.5001 19.2587C56.5001 19.1159 56.2053 18.816 56.0649 18.816C56.0293 18.816 55.9252 18.9003 55.8335 19.0033ZM54.7486 20.2241C54.6203 20.4933 54.7234 20.7712 54.9781 20.843C55.3614 20.9512 55.6205 20.3531 55.298 20.1049C55.126 19.9726 54.8387 20.0348 54.7486 20.2241ZM56.8501 20.1456C56.7951 20.2074 56.7501 20.3465 56.7501 20.4546C56.7501 20.5628 56.7951 20.7018 56.8501 20.7636C56.9051 20.8254 57.0288 20.876 57.1251 20.876C57.2213 20.876 57.345 20.8254 57.4 20.7636C57.455 20.7018 57.5 20.5628 57.5 20.4546C57.5 20.3465 57.455 20.2074 57.4 20.1456C57.345 20.0838 57.2213 20.0332 57.1251 20.0332C57.0288 20.0332 56.9051 20.0838 56.8501 20.1456ZM55.7878 21.3847C55.6038 21.7003 55.7477 21.9996 56.0835 21.9996C56.4496 21.9996 56.6197 21.5855 56.3692 21.304C56.1791 21.0904 55.9402 21.1235 55.7878 21.3847ZM57.7824 21.4926C57.7459 21.6561 57.7724 21.784 57.8642 21.8871C57.9897 22.0282 58 22.0098 58 21.6451C58 21.2082 57.8668 21.1148 57.7824 21.4926ZM54.8522 22.4263C54.6222 22.6073 54.6153 22.8544 54.8339 23.0768C54.9719 23.2171 55.0371 23.2281 55.2089 23.1401C55.4724 23.0052 55.5019 22.5256 55.2557 22.3774C55.0531 22.2556 55.0719 22.2534 54.8522 22.4263ZM56.8959 22.3824C56.6938 22.5137 56.7039 22.9951 56.9113 23.12C57.1302 23.2516 57.2156 23.2422 57.3691 23.0698C57.6998 22.6981 57.3012 22.1193 56.8959 22.3824ZM53.767 23.6101C53.712 23.6719 53.667 23.811 53.667 23.9191C53.667 24.0273 53.712 24.1663 53.767 24.2281C53.822 24.2899 53.9457 24.3405 54.042 24.3405C54.1382 24.3405 54.262 24.2899 54.317 24.2281C54.3719 24.1663 54.4169 24.0273 54.4169 23.9191C54.4169 23.811 54.3719 23.6719 54.317 23.6101C54.262 23.5483 54.1382 23.4978 54.042 23.4978C53.9457 23.4978 53.822 23.5483 53.767 23.6101ZM55.7573 23.7085C55.632 24.0815 55.8713 24.3972 56.2076 24.3023C56.638 24.1809 56.5278 23.4978 56.0779 23.4978C55.8954 23.4978 55.8091 23.5545 55.7573 23.7085ZM52.7546 24.7562C52.6998 24.8303 52.6672 25.0094 52.6819 25.1542C52.7033 25.364 52.7562 25.4234 52.9429 25.4475C53.3623 25.5015 53.5709 25.0887 53.2861 24.7685C53.1225 24.5848 52.8852 24.5793 52.7546 24.7562ZM54.7978 24.7685C54.513 25.0887 54.7217 25.5015 55.1411 25.4475C55.3278 25.4234 55.3806 25.364 55.402 25.1542C55.4501 24.6829 55.0827 24.4485 54.7978 24.7685ZM56.8501 24.7338C56.6131 25.0001 56.7932 25.4641 57.1336 25.4641C57.3624 25.4641 57.5574 24.9523 57.4065 24.748C57.2906 24.5912 56.984 24.5833 56.8501 24.7338ZM51.7505 25.9323C51.6588 26.0353 51.5838 26.1617 51.5838 26.2132C51.5838 26.3347 51.8924 26.6814 52.0005 26.6814C52.1085 26.6814 52.4171 26.3347 52.4171 26.2132C52.4171 26.0918 52.1085 25.745 52.0005 25.745C51.9546 25.745 51.8421 25.8293 51.7505 25.9323ZM53.7979 25.8921C53.5656 26.1533 53.6503 26.5129 53.9707 26.6251C54.342 26.7552 54.5992 26.0485 54.2558 25.842C54.0368 25.7103 53.9515 25.7197 53.7979 25.8921ZM55.8397 25.9254C55.509 26.2969 55.9055 26.834 56.2974 26.5454C56.5502 26.3593 56.5576 26.0819 56.3149 25.8908C56.0776 25.704 56.0338 25.7072 55.8397 25.9254ZM50.6682 27.1015C50.4069 27.4552 50.8952 28.0039 51.2099 27.7104C51.3592 27.5712 51.372 27.2299 51.2339 27.0747C51.0957 26.9194 50.792 26.9338 50.6682 27.1015ZM52.7227 27.0248C52.6204 27.1397 52.6657 27.5935 52.791 27.7104C53.1057 28.0039 53.594 27.4552 53.3328 27.1015C53.2288 26.9607 52.8249 26.9099 52.7227 27.0248ZM54.7547 27.0968C54.5908 27.3185 54.7142 27.6976 54.9739 27.771C55.263 27.8525 55.5265 27.5276 55.4245 27.2152C55.3411 26.9599 54.9119 26.8839 54.7547 27.0968ZM49.684 28.1983C49.629 28.2601 49.584 28.3992 49.584 28.5073C49.584 28.6155 49.629 28.7545 49.684 28.8163C49.739 28.8781 49.8627 28.9287 49.959 28.9287C50.0552 28.9287 50.1789 28.8781 50.2339 28.8163C50.2889 28.7545 50.3339 28.6155 50.3339 28.5073C50.3339 28.3992 50.2889 28.2601 50.2339 28.1983C50.1789 28.1365 50.0552 28.0859 49.959 28.0859C49.8627 28.0859 49.739 28.1365 49.684 28.1983ZM51.7147 28.233C51.5612 28.4056 51.5529 28.5015 51.6701 28.7476C51.8441 29.1129 52.4171 28.9026 52.4171 28.4733C52.4171 28.3195 52.1659 28.0859 52.0005 28.0859C51.9154 28.0859 51.7868 28.1521 51.7147 28.233ZM53.767 28.1983C53.712 28.2601 53.667 28.3992 53.667 28.5073C53.667 28.6155 53.712 28.7545 53.767 28.8163C53.822 28.8781 53.9457 28.9287 54.042 28.9287C54.1382 28.9287 54.262 28.8781 54.317 28.8163C54.3719 28.7545 54.4169 28.6155 54.4169 28.5073C54.4169 28.3992 54.3719 28.2601 54.317 28.1983C54.262 28.1365 54.1382 28.0859 54.042 28.0859C53.9457 28.0859 53.822 28.1365 53.767 28.1983ZM55.8567 28.203C55.7077 28.4195 55.6565 28.5541 55.7244 28.5512C55.8202 28.547 56.1075 28.0859 56.0142 28.0859C55.9719 28.0859 55.901 28.1387 55.8567 28.203ZM46.6467 29.3107C46.426 29.4552 46.4536 29.9442 46.6884 30.0464C47.0741 30.2146 47.4116 29.6845 47.1243 29.3617C46.9694 29.1876 46.8537 29.1752 46.6467 29.3107ZM48.6254 29.3972C48.4027 29.6738 48.5686 30.0523 48.9126 30.0523C49.2533 30.0523 49.3983 29.7552 49.213 29.4374C49.0516 29.1606 48.8283 29.1453 48.6254 29.3972ZM50.7148 29.3567C50.43 29.6768 50.6387 30.0897 51.058 30.0356C51.2478 30.0112 51.2975 29.9531 51.3202 29.7292C51.3645 29.2911 50.9825 29.056 50.7148 29.3567ZM52.8008 29.3312C52.7023 29.4122 52.6622 29.5454 52.6807 29.7292C52.7034 29.9531 52.7532 30.0112 52.9429 30.0356C53.3623 30.0897 53.5709 29.6768 53.2861 29.3567C53.1268 29.1777 52.9961 29.1708 52.8008 29.3312ZM54.7978 29.3567C54.658 29.5139 54.6183 29.865 54.7403 29.865C54.7807 29.865 54.9139 29.7176 55.0362 29.5373C55.2431 29.2325 55.2471 29.2096 55.0937 29.2096C55.0031 29.2096 54.8699 29.2758 54.7978 29.3567ZM13.0693 30.4837C13.1197 30.5897 13.2237 30.7347 13.3002 30.8061C13.4222 30.9199 13.4356 30.9146 13.4089 30.7628C13.3921 30.6676 13.2882 30.5224 13.178 30.4403C12.9847 30.2963 12.9808 30.2978 13.0693 30.4837ZM14.8282 30.5094C14.585 30.7307 14.6632 31.1469 14.964 31.2317C15.249 31.3122 15.4345 31.1183 15.4034 30.7726C15.3702 30.4045 15.0863 30.2745 14.8282 30.5094ZM53.8284 30.5064C53.7294 30.5965 53.6619 30.7391 53.6785 30.8233C53.7033 30.9492 53.7554 30.9291 53.9734 30.709C54.1635 30.517 54.2058 30.4277 54.1233 30.3921C54.0601 30.3649 53.9274 30.4164 53.8284 30.5064ZM45.498 30.6204C45.4263 30.771 45.4353 30.8646 45.5386 31.0417C45.7 31.3185 45.9234 31.3338 46.1263 31.0819C46.2511 30.9269 46.2609 30.8536 46.1826 30.6606C46.0593 30.3567 45.6355 30.3318 45.498 30.6204ZM47.5886 30.5613C47.4292 30.777 47.5477 31.1621 47.7948 31.2317C48.0829 31.313 48.2651 31.1185 48.2342 30.7625C48.2128 30.5157 48.1717 30.4695 47.952 30.4455C47.7963 30.4284 47.653 30.474 47.5886 30.5613ZM49.6396 30.4893C49.5373 30.6042 49.5826 31.058 49.7079 31.1749C50.0226 31.4685 50.5109 30.9197 50.2497 30.5661C50.1457 30.4253 49.7418 30.3744 49.6396 30.4893ZM51.6522 30.6606C51.5738 30.8536 51.5837 30.9269 51.7085 31.0819C51.9114 31.3338 52.1347 31.3185 52.2961 31.0417C52.4814 30.7239 52.3364 30.4268 51.9957 30.4268C51.8113 30.4268 51.7224 30.4873 51.6522 30.6606ZM14.1446 31.7776C14.2732 31.9026 14.3913 31.9644 14.4071 31.915C14.4526 31.7725 14.2485 31.5505 14.0719 31.5505C13.9326 31.5505 13.9425 31.5813 14.1446 31.7776ZM15.806 31.7485C15.6071 32.0676 15.7794 32.389 16.1508 32.3918C16.27 32.3926 16.3736 32.3108 16.4302 32.1709C16.6312 31.6753 16.0828 31.3042 15.806 31.7485ZM40.4347 31.6628C40.3797 31.7246 40.3347 31.8637 40.3347 31.9718C40.3347 32.08 40.3797 32.219 40.4347 32.2808C40.4897 32.3426 40.6134 32.3932 40.7097 32.3932C40.8059 32.3932 40.9297 32.3426 40.9847 32.2808C41.0396 32.219 41.0846 32.08 41.0846 31.9718C41.0846 31.8637 41.0396 31.7246 40.9847 31.6628C40.9297 31.601 40.8059 31.5505 40.7097 31.5505C40.6134 31.5505 40.4897 31.601 40.4347 31.6628ZM42.5179 31.6628C42.373 31.8256 42.394 32.2692 42.5497 32.3364C42.8105 32.4488 43.0062 32.3895 43.0948 32.1709C43.2732 31.7311 42.8157 31.3282 42.5179 31.6628ZM44.483 31.7919C44.3638 32.0857 44.4734 32.332 44.7433 32.377C44.9788 32.4162 45.1677 32.2392 45.1677 31.9791C45.1677 31.5172 44.6515 31.3761 44.483 31.7919ZM46.6009 31.6628C46.5459 31.7246 46.5009 31.8637 46.5009 31.9718C46.5009 32.08 46.5459 32.219 46.6009 32.2808C46.6559 32.3426 46.7796 32.3932 46.8759 32.3932C46.9721 32.3932 47.0958 32.3426 47.1508 32.2808C47.2058 32.219 47.2508 32.08 47.2508 31.9718C47.2508 31.8637 47.2058 31.7246 47.1508 31.6628C47.0958 31.601 46.9721 31.5505 46.8759 31.5505C46.7796 31.5505 46.6559 31.601 46.6009 31.6628ZM48.6316 31.6976C48.4782 31.8701 48.4698 31.966 48.587 32.2121C48.7032 32.456 49.1314 32.4564 49.2474 32.2127C49.4657 31.7545 48.9585 31.3303 48.6316 31.6976ZM50.6839 31.6628C50.6289 31.7246 50.5839 31.8637 50.5839 31.9718C50.5839 32.08 50.6289 32.219 50.6839 32.2808C50.7389 32.3426 50.8626 32.3932 50.9589 32.3932C51.0551 32.3932 51.1789 32.3426 51.2339 32.2808C51.2889 32.219 51.3339 32.08 51.3339 31.9718C51.3339 31.8637 51.2889 31.7246 51.2339 31.6628C51.1789 31.601 51.0551 31.5505 50.9589 31.5505C50.8626 31.5505 50.7389 31.601 50.6839 31.6628ZM52.7487 31.6932C52.5888 31.9098 52.6836 31.9318 52.9055 31.7297C53.0395 31.6076 53.0626 31.5505 52.9781 31.5505C52.91 31.5505 52.8067 31.6147 52.7487 31.6932ZM15.0936 32.7006C15.1128 32.7152 15.2033 32.7889 15.295 32.8645C15.4491 32.9915 15.4531 32.9896 15.3473 32.838C15.2844 32.7479 15.1937 32.6741 15.1459 32.6741C15.0981 32.6741 15.0745 32.686 15.0936 32.7006ZM16.899 32.7752C16.7439 32.8767 16.7082 33.1983 16.8284 33.4115C16.8683 33.4823 17.0032 33.5402 17.1282 33.5402C17.5022 33.5402 17.6624 32.9637 17.342 32.771C17.145 32.6526 17.0855 32.6531 16.899 32.7752ZM29.1232 32.9019C28.8779 33.3226 29.2924 33.7464 29.6635 33.4544C29.8683 33.2931 29.8857 33.0248 29.7046 32.8212C29.5145 32.6076 29.2756 32.6408 29.1232 32.9019ZM31.2119 32.8263C30.9247 33.149 31.2622 33.6791 31.6479 33.5109C31.893 33.4041 31.9104 32.9132 31.6742 32.771C31.4541 32.6386 31.3699 32.6486 31.2119 32.8263ZM33.3144 32.7752C33.1659 32.8724 33.1215 33.2014 33.2323 33.3832C33.3438 33.5662 33.5637 33.5983 33.7423 33.4577C33.951 33.2934 33.97 33.0262 33.7876 32.8212C33.637 32.652 33.5202 32.6406 33.3144 32.7752ZM35.2931 32.8618C35.0704 33.1384 35.2364 33.5168 35.5803 33.5168C35.921 33.5168 36.066 33.2197 35.8807 32.9019C35.7193 32.6251 35.496 32.6099 35.2931 32.8618ZM37.3781 32.8263C37.0909 33.149 37.4283 33.6791 37.8141 33.5109C38.0592 33.4041 38.0766 32.9132 37.8404 32.771C37.6203 32.6386 37.5361 32.6486 37.3781 32.8263ZM39.4806 32.7752C39.2599 32.9197 39.2875 33.4087 39.5223 33.5109C39.908 33.6791 40.2455 33.149 39.9582 32.8263C39.8032 32.6521 39.6876 32.6397 39.4806 32.7752ZM41.465 32.8546C41.1921 33.1936 41.509 33.6735 41.8971 33.5088C42.0307 33.452 42.0846 33.3531 42.0846 33.164C42.0846 32.6869 41.7391 32.5144 41.465 32.8546ZM43.5636 32.7752C43.3166 32.9369 43.3896 33.4203 43.679 33.5401C44.0439 33.6909 44.3482 32.9765 44.0066 32.771C43.8096 32.6526 43.7501 32.6531 43.5636 32.7752ZM45.5386 32.9019C45.3533 33.2197 45.4984 33.5168 45.839 33.5168C46.183 33.5168 46.349 33.1384 46.1263 32.8618C45.9234 32.6099 45.7 32.6251 45.5386 32.9019ZM47.6273 32.8263C47.3401 33.149 47.6776 33.6791 48.0633 33.5109C48.3084 33.4041 48.3258 32.9132 48.0896 32.771C47.8695 32.6386 47.7853 32.6486 47.6273 32.8263ZM49.7298 32.7752C49.5091 32.9197 49.5367 33.4087 49.7715 33.5109C50.1572 33.6791 50.4947 33.149 50.2074 32.8263C50.0524 32.6521 49.9368 32.6397 49.7298 32.7752ZM17.8569 33.9995C17.6705 34.209 17.7398 34.4557 18.0239 34.5942C18.2728 34.7155 18.3063 34.711 18.4364 34.5383C18.638 34.2709 18.517 33.9466 18.202 33.9106C18.0693 33.8954 17.914 33.9354 17.8569 33.9995ZM28.0901 34.0258C27.9308 34.2416 28.0492 34.6266 28.2963 34.6963C28.5845 34.7775 28.7666 34.5831 28.7357 34.2271C28.7143 33.9802 28.6732 33.9341 28.4535 33.91C28.2978 33.893 28.1545 33.9386 28.0901 34.0258ZM30.1855 34.0037C29.8877 34.3384 30.2462 34.8525 30.6376 34.6521C30.9887 34.4724 30.8534 33.8914 30.4605 33.8914C30.3642 33.8914 30.2405 33.9419 30.1855 34.0037ZM32.1657 34.0849C32.0517 34.3243 32.257 34.7341 32.491 34.7341C32.6681 34.7341 32.9186 34.4528 32.9186 34.2538C32.9186 33.876 32.3282 33.7435 32.1657 34.0849ZM34.2563 34.0258C34.0969 34.2416 34.2154 34.6266 34.4625 34.6963C34.7506 34.7775 34.9328 34.5831 34.9019 34.2271C34.8805 33.9802 34.8394 33.9341 34.6197 33.91C34.464 33.893 34.3207 33.9386 34.2563 34.0258ZM36.3073 33.9538C36.205 34.0687 36.2503 34.5226 36.3756 34.6394C36.6903 34.933 37.1786 34.3843 36.9174 34.0306C36.8134 33.8898 36.4095 33.8389 36.3073 33.9538ZM38.3319 34.0849C38.2155 34.3294 38.4251 34.7341 38.6682 34.7341C38.7577 34.7341 38.8907 34.6316 38.9638 34.5063C39.1479 34.1906 39.004 33.8914 38.6682 33.8914C38.5067 33.8914 38.3929 33.9569 38.3319 34.0849ZM40.4189 34.0306C40.2804 34.2182 40.3786 34.6138 40.5818 34.6863C40.9336 34.8117 41.1783 34.4618 41.0341 34.0395C40.9697 33.8508 40.5561 33.8448 40.4189 34.0306ZM42.4524 34.019C42.3139 34.4245 42.6142 34.877 42.8914 34.6805C43.1313 34.5105 43.2193 34.2851 43.1173 34.1021C42.9985 33.8888 42.5174 33.8286 42.4524 34.019ZM44.5055 34.0258C44.3461 34.2416 44.4646 34.6266 44.7117 34.6963C44.9998 34.7775 45.182 34.5831 45.1511 34.2271C45.1297 33.9802 45.0886 33.9341 44.8689 33.91C44.7132 33.893 44.5699 33.9386 44.5055 34.0258ZM46.5565 33.9538C46.4542 34.0687 46.4995 34.5226 46.6248 34.6394C46.6955 34.7054 46.838 34.7298 46.9569 34.6963C47.201 34.6274 47.3226 34.2418 47.1666 34.0306C47.0626 33.8898 46.6587 33.8389 46.5565 33.9538ZM48.5679 34.128C48.4146 34.506 48.5839 34.6176 48.9949 34.4094C49.2788 34.2654 49.3156 34.215 49.2447 34.066C49.1151 33.7939 48.6875 33.8331 48.5679 34.128ZM19.2114 35.1086C19.4407 35.2194 19.5222 35.2194 19.4613 35.1086C19.433 35.0571 19.3277 35.018 19.2273 35.0216C19.0513 35.0279 19.0507 35.031 19.2114 35.1086ZM29.2045 35.0866C28.9162 35.3086 29.1032 35.8577 29.4671 35.8577C29.7346 35.8577 29.8952 35.5025 29.7579 35.2141C29.664 35.0171 29.38 34.9516 29.2045 35.0866ZM31.1631 35.2141C31.0293 35.4952 31.1863 35.8577 31.442 35.8577C31.6824 35.8577 31.8354 35.6939 31.8354 35.4364C31.8354 35.012 31.3377 34.8475 31.1631 35.2141ZM33.2686 35.1274C33.2136 35.1892 33.1686 35.3282 33.1686 35.4364C33.1686 35.5445 33.2136 35.6836 33.2686 35.7454C33.3236 35.8072 33.4473 35.8577 33.5436 35.8577C33.6398 35.8577 33.7635 35.8072 33.8185 35.7454C33.8735 35.6836 33.9185 35.5445 33.9185 35.4364C33.9185 35.3282 33.8735 35.1892 33.8185 35.1274C33.7635 35.0656 33.6398 35.015 33.5436 35.015C33.4473 35.015 33.3236 35.0656 33.2686 35.1274ZM35.2547 35.1961C35.2073 35.2957 35.1684 35.4191 35.1684 35.4704C35.1684 35.6242 35.4197 35.8577 35.5851 35.8577C35.7659 35.8577 36.0017 35.6192 36.0017 35.4364C36.0017 35.0569 35.4114 34.8671 35.2547 35.1961ZM37.3516 35.1274C37.2966 35.1892 37.2516 35.3282 37.2516 35.4364C37.2516 35.5445 37.2966 35.6836 37.3516 35.7454C37.4066 35.8072 37.5303 35.8577 37.6266 35.8577C37.7228 35.8577 37.8466 35.8072 37.9016 35.7454C37.9566 35.6836 38.0016 35.5445 38.0016 35.4364C38.0016 35.3282 37.9566 35.1892 37.9016 35.1274C37.8466 35.0656 37.7228 35.015 37.6266 35.015C37.5303 35.015 37.4066 35.0656 37.3516 35.1274ZM39.4348 35.1274C39.181 35.4125 39.4068 35.8992 39.766 35.8415C40.0107 35.8022 40.1619 35.3728 40.0056 35.1611C39.8774 34.9876 39.5751 34.9697 39.4348 35.1274ZM41.419 35.2002C41.1912 35.6783 41.7153 36.0906 42.0175 35.6711C42.1531 35.4828 42.158 35.4319 42.0565 35.259C41.8943 34.9828 41.5382 34.9499 41.419 35.2002ZM43.5178 35.1274C43.4628 35.1892 43.4178 35.3282 43.4178 35.4364C43.4178 35.5445 43.4628 35.6836 43.5178 35.7454C43.5728 35.8072 43.6965 35.8577 43.7928 35.8577C43.889 35.8577 44.0128 35.8072 44.0677 35.7454C44.1227 35.6836 44.1677 35.5445 44.1677 35.4364C44.1677 35.3282 44.1227 35.1892 44.0677 35.1274C44.0128 35.0656 43.889 35.015 43.7928 35.015C43.6965 35.015 43.5728 35.0656 43.5178 35.1274ZM45.5485 35.1621C45.382 35.3494 45.3841 35.416 45.5652 35.6673C45.8582 36.0738 46.3894 35.668 46.1693 35.2058C46.0604 34.9773 45.7336 34.9542 45.5485 35.1621ZM30.1855 36.251C30.1305 36.3128 30.0855 36.4518 30.0855 36.56C30.0855 36.6681 30.1305 36.8072 30.1855 36.869C30.2405 36.9308 30.3642 36.9814 30.4605 36.9814C30.5567 36.9814 30.6805 36.9308 30.7355 36.869C30.7904 36.8072 30.8354 36.6681 30.8354 36.56C30.8354 36.4518 30.7904 36.3128 30.7355 36.251C30.6805 36.1892 30.5567 36.1386 30.4605 36.1386C30.3642 36.1386 30.2405 36.1892 30.1855 36.251ZM32.2213 36.3367C32.0461 36.6178 32.1657 36.9262 32.4652 36.966C32.8462 37.0166 33.0519 36.5827 32.7877 36.2857C32.6053 36.0809 32.3675 36.1022 32.2213 36.3367ZM34.3143 36.2398C34.0177 36.4339 34.1869 36.9814 34.5435 36.9814C34.6397 36.9814 34.7635 36.9308 34.8185 36.869C34.8735 36.8072 34.9185 36.6681 34.9185 36.56C34.9185 36.1898 34.6269 36.0352 34.3143 36.2398ZM36.3392 36.2735C36.2844 36.3475 36.2518 36.5267 36.2665 36.6714C36.2879 36.8813 36.3408 36.9406 36.5275 36.9647C36.9469 37.0187 37.1555 36.6059 36.8707 36.2857C36.7072 36.102 36.4698 36.0965 36.3392 36.2735ZM38.3762 36.3263C38.1518 36.605 38.3195 36.9814 38.6682 36.9814C39.0168 36.9814 39.1845 36.605 38.9601 36.3263C38.877 36.2231 38.7457 36.1386 38.6682 36.1386C38.5907 36.1386 38.4594 36.2231 38.3762 36.3263ZM40.4805 36.2398C40.1839 36.4339 40.353 36.9814 40.7097 36.9814C40.8059 36.9814 40.9297 36.9308 40.9847 36.869C41.0396 36.8072 41.0846 36.6681 41.0846 36.56C41.0846 36.1898 40.7931 36.0352 40.4805 36.2398ZM42.5179 36.251C42.4629 36.3128 42.4179 36.4842 42.4179 36.6318C42.4179 36.842 42.4495 36.8907 42.5637 36.8559C42.6439 36.8314 42.8126 36.7857 42.9387 36.7542C43.1951 36.6901 43.2336 36.5068 43.0369 36.2857C42.8809 36.1105 42.6563 36.0955 42.5179 36.251ZM44.5844 36.2323C44.4321 36.3429 44.5636 36.3429 44.7927 36.2323C44.9026 36.1792 44.9168 36.1501 44.8344 36.1467C44.7656 36.1438 44.6531 36.1824 44.5844 36.2323ZM29.1689 37.4495C29.0772 37.5525 29.0023 37.6789 29.0023 37.7304C29.0023 37.8675 29.3172 38.1986 29.4476 38.1986C29.5966 38.1986 29.8355 37.8946 29.8355 37.705C29.8355 37.5622 29.5407 37.2623 29.4003 37.2623C29.3647 37.2623 29.2606 37.3465 29.1689 37.4495ZM31.2707 37.4081C31.1688 37.4882 31.0854 37.6291 31.0854 37.7213C31.0854 37.9399 31.3792 38.2357 31.5313 38.1702C31.6935 38.1001 31.7527 37.3762 31.6015 37.311C31.4561 37.2483 31.4839 37.2402 31.2707 37.4081ZM33.3144 37.3634C33.0606 37.5295 33.1556 37.6368 33.5565 37.6368C33.9391 37.6368 33.9423 37.6343 33.7935 37.4495C33.6254 37.2407 33.5285 37.2233 33.3144 37.3634ZM35.3143 37.473L35.1268 37.6836L35.3559 37.7132C35.4819 37.7295 35.6882 37.7295 35.8142 37.7132L36.0434 37.6836L35.8559 37.473C35.7527 37.3571 35.6309 37.2623 35.5851 37.2623C35.5392 37.2623 35.4174 37.3571 35.3143 37.473ZM37.3669 37.4261C37.227 37.5823 37.2369 37.5914 37.5778 37.6193C38.0012 37.6539 38.104 37.578 37.8813 37.395C37.6683 37.22 37.5446 37.2275 37.3669 37.4261ZM39.5014 37.3559C39.3999 37.4297 39.4106 37.4469 39.559 37.4481C39.6594 37.4489 39.7647 37.4074 39.7931 37.3559C39.8587 37.2367 39.6656 37.2367 39.5014 37.3559ZM24.0567 38.5506C23.998 38.6573 24.4942 39.2455 24.588 39.1804C24.7015 39.1016 24.6895 38.727 24.5693 38.5919C24.4583 38.4672 24.1177 38.4397 24.0567 38.5506ZM30.1855 38.5919C30.1305 38.6537 30.0855 38.7927 30.0855 38.9009C30.0855 39.009 30.1305 39.1481 30.1855 39.2099C30.2405 39.2717 30.3642 39.3223 30.4605 39.3223C30.5567 39.3223 30.6805 39.2717 30.7355 39.2099C30.7904 39.1481 30.8354 39.009 30.8354 38.9009C30.8354 38.7927 30.7904 38.6537 30.7355 38.5919C30.6805 38.5301 30.5567 38.4795 30.4605 38.4795C30.3642 38.4795 30.2405 38.5301 30.1855 38.5919ZM25.0859 39.6936C24.9817 39.7698 25.0125 39.8432 25.2701 40.1336L25.5793 40.4822L25.6579 40.2534C25.8014 39.8361 25.4119 39.4549 25.0859 39.6936ZM27.1024 39.7155C27.0474 39.7773 27.0024 39.9164 27.0024 40.0245C27.0024 40.1327 27.0474 40.2717 27.1024 40.3335C27.1574 40.3953 27.2811 40.4459 27.3774 40.4459C27.4736 40.4459 27.5974 40.3953 27.6524 40.3335C27.7074 40.2717 27.7524 40.1327 27.7524 40.0245C27.7524 39.9164 27.7074 39.7773 27.6524 39.7155C27.5974 39.6537 27.4736 39.6032 27.3774 39.6032C27.2811 39.6032 27.1574 39.6537 27.1024 39.7155ZM31.2208 39.7453C30.8774 40.1313 31.3265 40.6568 31.7453 40.3589C31.8367 40.2939 31.8455 40.2038 31.7842 39.9624C31.693 39.6038 31.4351 39.5045 31.2208 39.7453ZM26.1691 40.8231C26.0652 40.9008 26.0928 40.962 26.3344 41.1881C26.494 41.3377 26.6534 41.4399 26.6885 41.4156C26.8043 41.3352 26.7552 41.0395 26.6 40.8818C26.4249 40.7037 26.3438 40.6926 26.1691 40.8231ZM28.1402 40.8981C27.9465 41.1386 27.9686 41.3531 28.2051 41.5272C28.486 41.734 28.7523 41.5723 28.7523 41.195C28.7523 40.77 28.3864 40.5924 28.1402 40.8981ZM30.2313 40.8279C29.9064 41.0407 30.2196 41.7393 30.5742 41.5927C30.8722 41.4695 30.9358 40.981 30.6743 40.8237C30.4773 40.7053 30.4178 40.7058 30.2313 40.8279ZM27.4573 42.128C27.7291 42.3293 27.8348 42.3089 27.6707 42.0868C27.6127 42.0083 27.4855 41.9444 27.388 41.9447C27.2307 41.9452 27.2385 41.9659 27.4573 42.128ZM29.0826 42.1376C28.967 42.3803 29.1751 42.7868 29.4149 42.7868C29.7464 42.7868 29.9576 42.306 29.7355 42.0564C29.5718 41.8724 29.186 41.9205 29.0826 42.1376ZM31.1732 42.0785C31.0138 42.2943 31.1323 42.6793 31.3794 42.749C31.6675 42.8302 31.8497 42.6358 31.8188 42.2798C31.7974 42.0329 31.7563 41.9868 31.5366 41.9627C31.3809 41.9457 31.2376 41.9913 31.1732 42.0785ZM30.1855 43.1801C30.1305 43.2419 30.0855 43.3809 30.0855 43.4891C30.0855 43.5972 30.1305 43.7363 30.1855 43.7981C30.2405 43.8599 30.3642 43.9104 30.4605 43.9104C30.5567 43.9104 30.6805 43.8599 30.7355 43.7981C30.7904 43.7363 30.8354 43.5972 30.8354 43.4891C30.8354 43.3809 30.7904 43.2419 30.7355 43.1801C30.6805 43.1183 30.5567 43.0677 30.4605 43.0677C30.3642 43.0677 30.2405 43.1183 30.1855 43.1801ZM32.2624 43.1522C32.1994 43.197 32.1478 43.3486 32.1478 43.4891C32.1478 43.9392 32.6821 44.0916 32.8456 43.6881C33.0217 43.254 32.6278 42.892 32.2624 43.1522ZM31.3354 44.274C31.3354 44.3195 31.4197 44.3822 31.5229 44.4132C31.8148 44.5011 31.8641 44.4836 31.752 44.3318C31.6402 44.1805 31.3354 44.1381 31.3354 44.274ZM33.3144 44.2925C33.0829 44.4441 33.1287 44.8343 33.3912 44.9466C33.831 45.1344 34.0609 44.7952 33.7479 44.4206C33.5329 44.1634 33.5182 44.1591 33.3144 44.2925Z" fill="white"/>
</g>
<defs>
<filter id="filter0_d_1_22" x="0" y="0" width="62" height="53" filterUnits="userSpaceOnUse" color-interpolation-filters="sRGB">
<feFlood flood-opacity="0" result="BackgroundImageFix"/>
<feColorMatrix in="SourceAlpha" type="matrix" values="0 0 0 0 0 0 0 0 0 0 0 0 0 0 0 0 0 0 127 0" result="hardAlpha"/>
<feOffset dy="4"/>
<feGaussianBlur stdDeviation="2"/>
<feComposite in2="hardAlpha" operator="out"/>
<feColorMatrix type="matrix" values="0 0 0 0 0 0 0 0 0 0 0 0 0 0 0 0 0 0 0.25 0"/>
<feBlend mode="normal" in2="BackgroundImageFix" result="effect1_dropShadow_1_22"/>
<feBlend mode="normal" in="SourceGraphic" in2="effect1_dropShadow_1_22" result="shape"/>
</filter>
</defs>
</svg>
